<svg id="Logo" xmlns="http://www.w3.org/2000/svg" viewBox="0 0 396.85 240.94"><defs><style>.cls-1{fill:#c30061;}.cls-2{fill:#fff;}.cls-3{fill:#1d1d1b;}</style></defs><title>L_Bax_Magenta_FC</title><path class="cls-1" d="M401.54,279.83H73.26A34.3,34.3,0,0,1,39,245.52V73.2A34.3,34.3,0,0,1,73.26,38.88H401.54A34.3,34.3,0,0,1,435.83,73.2V245.52A34.3,34.3,0,0,1,401.54,279.83Z" transform="translate(-38.98 -38.88)"/><path class="cls-2" d="M99.29,175.53a25.8,25.8,0,0,1,8.21,1.34,22.65,22.65,0,0,1,7.37,4.15,24.18,24.18,0,0,1,15.73-5.48,24.46,24.46,0,0,1,9.48,1.9,26.37,26.37,0,0,1,8,5.13,24.18,24.18,0,0,1,5.48,7.73,22.93,22.93,0,0,1,2,9.56v35.27a7.73,7.73,0,0,1-2.81,5.9,9.37,9.37,0,0,1-6.46,2.53,9.36,9.36,0,0,1-9.13-9.13V200.26a6,6,0,0,0-1.9-4.5,6.52,6.52,0,0,0-4.7-1.83,7,7,0,0,0-4.42,1.62,5.65,5.65,0,0,0-2,4.71v34.15a8.69,8.69,0,0,1-2.74,6.46,9,9,0,0,1-6.53,2.67,9.34,9.34,0,0,1-6.32-2.46,7.65,7.65,0,0,1-2.81-6V200.26a6.3,6.3,0,0,0-2.11-4.57,6.44,6.44,0,0,0-8.92.07,6.65,6.65,0,0,0-2,4.64v34.85a9.17,9.17,0,0,1-9.13,8.29,9.35,9.35,0,0,1-3.65-.7,9,9,0,0,1-2.95-2,10,10,0,0,1-2-3,7,7,0,0,1-.63-3.51V199.84a22.76,22.76,0,0,1,2-9.35,24.8,24.8,0,0,1,5.34-7.73,25.84,25.84,0,0,1,7.93-5.27A24.38,24.38,0,0,1,99.29,175.53Z" transform="translate(-38.98 -38.88)"/><path class="cls-2" d="M293,175.25a8.06,8.06,0,0,1,6.32,2.88,9.15,9.15,0,0,1,2.53,6.11,8.76,8.76,0,0,1-2.74,6.39,8.46,8.46,0,0,1-6.11,2.74H258.51a3.26,3.26,0,0,0-3.51,3.37,3.63,3.63,0,0,0,.91,2.46,3.25,3.25,0,0,0,2.6,1.05h23.85a18.69,18.69,0,0,1,8.07,1.76,20.41,20.41,0,0,1,6.46,4.78,22.78,22.78,0,0,1,4.28,6.89,21.59,21.59,0,0,1,1.54,8.08,22.42,22.42,0,0,1-1.68,8.78,20.75,20.75,0,0,1-4.63,6.89,21,21,0,0,1-7,4.5,24.14,24.14,0,0,1-9,1.62h-35.5a8.4,8.4,0,0,1-6.18-2.53,8.76,8.76,0,0,1-2.53-6.46,9.47,9.47,0,0,1,2.53-6.39,8.38,8.38,0,0,1,6.18-3h35.5q3.79,0,3.79-3.37t-3.79-3.23H257a18.32,18.32,0,0,1-7.93-1.76,20.86,20.86,0,0,1-6.46-4.71,21.6,21.6,0,0,1-4.28-6.89,22.82,22.82,0,0,1-1.54-8.43,20.74,20.74,0,0,1,1.61-8.08,22.16,22.16,0,0,1,4.42-6.82,21.51,21.51,0,0,1,6.6-4.71,21.09,21.09,0,0,1,8.28-1.9H293Z" transform="translate(-38.98 -38.88)"/><path class="cls-2" d="M317.91,175.95a8,8,0,0,1,6.11,2.67,10.41,10.41,0,0,1,2.74,6.46v49.74a8.86,8.86,0,0,1-2.39,6.32,9.41,9.41,0,0,1-6.46,2.81,9,9,0,0,1-6.18-2.25,9.92,9.92,0,0,1-3.09-6.32V184.52a8.7,8.7,0,0,1,2.95-6A9.75,9.75,0,0,1,317.91,175.95Z" transform="translate(-38.98 -38.88)"/><rect class="cls-3" x="293.07" y="59.93" width="18.11" height="67.8" rx="8.81" ry="8.81"/><rect class="cls-3" x="342.68" y="135.73" width="43.66" height="18.11" rx="8.81" ry="8.81" transform="translate(470.32 -258.61) rotate(90)"/><rect class="cls-3" x="305.91" y="145.77" width="23.57" height="18.11" rx="9.01" ry="9.01" transform="translate(433.55 -201.75) rotate(90)"/><rect class="cls-3" x="358.93" y="128.57" width="57.98" height="18.11" rx="8.81" ry="8.81" transform="translate(486.56 -289.18) rotate(90)"/><path class="cls-2" d="M171.74,175.39A9.48,9.48,0,0,1,181,184.8v24.73a15,15,0,0,0,1.26,6.11,15.86,15.86,0,0,0,8.35,8.36,15,15,0,0,0,6.11,1.26,15.7,15.7,0,0,0,5.9-1.12,16.5,16.5,0,0,0,5-3.09,14.19,14.19,0,0,0,3.44-4.78,14.55,14.55,0,0,0,1.26-6V184.66a8,8,0,0,1,1.4-4.78,9.53,9.53,0,0,1,.63-0.84c0.23-.28.49-0.56,0.77-0.84a8.15,8.15,0,0,1,6.32-2.81,9,9,0,0,1,6.6,2.81,8.9,8.9,0,0,1,2.81,6v25.29a33,33,0,0,1-2.67,13.21,34.3,34.3,0,0,1-18.11,18.13,33.26,33.26,0,0,1-13.34,2.67,29.69,29.69,0,0,1-12.92-2.32,34.95,34.95,0,0,1-18.39-17.85,30.43,30.43,0,0,1-2.81-12.86V184.66a9,9,0,0,1,2.6-6.39A9.1,9.1,0,0,1,171.74,175.39Z" transform="translate(-38.98 -38.88)"/><path class="cls-2" d="M400.53,184.46a9.48,9.48,0,0,1-9.41,9.27H366.41a15,15,0,0,0-6.11,1.26,15.86,15.86,0,0,0-8.35,8.36,15,15,0,0,0-1.26,6.11,15.73,15.73,0,0,0,1.12,5.9,16.52,16.52,0,0,0,3.09,5,14.18,14.18,0,0,0,4.77,3.44,14.52,14.52,0,0,0,6,1.26h25.55a8,8,0,0,1,4.77,1.41,9.53,9.53,0,0,1,.84.63c0.28,0.23.56,0.49,0.84,0.77a8.16,8.16,0,0,1,2.81,6.32,9,9,0,0,1-2.81,6.6,8.89,8.89,0,0,1-6,2.81H366.41a32.93,32.93,0,0,1-13.2-2.67,34.3,34.3,0,0,1-18.11-18.13,33.33,33.33,0,0,1-2.67-13.35,29.76,29.76,0,0,1,2.32-12.93,34.95,34.95,0,0,1,17.83-18.41,30.36,30.36,0,0,1,12.85-2.81h25.83a9,9,0,0,1,6.39,2.6A9.11,9.11,0,0,1,400.53,184.46Z" transform="translate(-38.98 -38.88)"/><path class="cls-2" d="M226.86,101a9.92,9.92,0,0,0-2.36-1.58,8.33,8.33,0,0,0-3.53-1H194.25a32.92,32.92,0,0,0-13.2,2.67,34.3,34.3,0,0,0-18.11,18.13,33.33,33.33,0,0,0-2.67,13.35,29.76,29.76,0,0,0,2.32,12.93,34.95,34.95,0,0,0,17.83,18.41,30.36,30.36,0,0,0,12.85,2.81h27.27a9,9,0,0,0,6.18-2.25,8.77,8.77,0,0,0,2.22-3.13l0.15-.35,0-.09a9.22,9.22,0,0,0,.49-1.69c0.07-.34.14-0.7,0.19-1.06V107A8.7,8.7,0,0,0,226.86,101Zm-38.72,46.09a15.86,15.86,0,0,1-8.35-8.36,15,15,0,0,1-1.26-6.11,15.73,15.73,0,0,1,1.12-5.9,16.52,16.52,0,0,1,3.09-5,14.18,14.18,0,0,1,4.77-3.44,14.52,14.52,0,0,1,6-1.26h18.15v31.34H194.25A15,15,0,0,1,188.14,147.08Z" transform="translate(-38.98 -38.88)"/><path class="cls-2" d="M299.91,150.76L283,132.65l17.27-18.54a10.35,10.35,0,0,0,2.14-7,9.35,9.35,0,0,0-3.11-6.11,9.81,9.81,0,0,0-6.92-2.45,9.22,9.22,0,0,0-6.31,3.12l-16,17.15-16-17.15a10.83,10.83,0,0,0-6.68-3,8.31,8.31,0,0,0-6.55,2.31,10.18,10.18,0,0,0-3,6.42,9.07,9.07,0,0,0,2,6.7l17.28,18.54-16.88,18.11a10.85,10.85,0,0,0-2.5,6.87A8.32,8.32,0,0,0,240.6,164a10.17,10.17,0,0,0,6.61,2.57,9.06,9.06,0,0,0,6.54-2.51l16.38-17.58,16.37,17.57a10.33,10.33,0,0,0,6.85,2.62,9.34,9.34,0,0,0,6.31-2.68,9.82,9.82,0,0,0,2.93-6.74A9.23,9.23,0,0,0,299.91,150.76Z" transform="translate(-38.98 -38.88)"/><path class="cls-2" d="M153.1,132.6a33.33,33.33,0,0,0-2.67-13.35,34.3,34.3,0,0,0-18.11-18.13,32.92,32.92,0,0,0-13.2-2.67h-23V81.55a10.41,10.41,0,0,0-2.74-6.46,8,8,0,0,0-6.11-2.67A9.75,9.75,0,0,0,81,74.95a8.7,8.7,0,0,0-2.95,6v77.19c0.05,0.37.11,0.72,0.19,1.06a9.23,9.23,0,0,0,.49,1.69l0,0.09,0.15,0.35a8.77,8.77,0,0,0,2.22,3.13,9,9,0,0,0,6.18,2.25h32.78A30.36,30.36,0,0,0,133,163.94a34.95,34.95,0,0,0,17.83-18.41A29.76,29.76,0,0,0,153.1,132.6Zm-19.52,6.11a15.86,15.86,0,0,1-8.35,8.36,15,15,0,0,1-6.11,1.26h-23V117h23.66a14.52,14.52,0,0,1,6,1.26,14.18,14.18,0,0,1,4.77,3.44,16.52,16.52,0,0,1,3.09,5,15.73,15.73,0,0,1,1.12,5.9A15,15,0,0,1,133.59,138.72Z" transform="translate(-38.98 -38.88)"/></svg>